<svg width="96" height="96" xmlns="http://www.w3.org/2000/svg" xmlns:xlink="http://www.w3.org/1999/xlink" xml:space="preserve" overflow="hidden"><g transform="translate(-309 -99)"><path d="M357.28 179C361.665 175.538 365.848 171.829 369.81 167.89 375.553 162.419 380.631 156.29 384.94 149.63 388.94 143.19 392.76 134.83 390.13 127.19 388 120.87 382.09 115.5 375.3 114.85 366.72 114 360.51 121.26 357 128.21 353.79 121.85 348.48 115.29 340.81 114.81 334 114.39 327.66 119.18 324.73 125.13 321.06 132.6 324.05 141 327.91 147.71 331.91 154.71 337.23 160.86 342.85 166.55 347.28 171.083 352.007 175.315 357 179.22ZM341 145 344 136 345.78 130.65C346.24 129.26 346.95 127.4 348.87 128.2 350.03 128.69 350.1 129.89 350.3 130.94L351.13 135.37 353.53 148.17 355.12 156.67 360.92 141.33 362.2 137.95C362.57 136.95 362.95 135.95 364.2 135.84 365.79 135.68 366.26 137.04 366.61 138.24L367.84 142.46 370.28 150.85 372.69 148.2C373.461 147.191 374.328 146.26 375.28 145.42 376.28 144.72 378.13 145.04 379.28 145.04L383 145.04C382.26 146.37 381.44 147.71 380.55 149.04L377.3 149.04C375.17 151.39 373.13 153.89 370.87 156.12 370.161 156.967 368.9 157.079 368.053 156.37 367.886 156.231 367.743 156.065 367.63 155.88 367.413 155.45 367.255 154.992 367.16 154.52L365.49 148.81 364.13 144.13C361.58 150.86 359.13 157.6 356.5 164.3 356.353 164.846 356.034 165.33 355.59 165.68 354.68 166.305 353.435 166.074 352.809 165.164 352.649 164.931 352.541 164.668 352.49 164.39 352.26 163.47 352.14 162.51 351.96 161.59L349.43 148.09 347.54 138 344.72 146.47C344.29 147.73 343.95 148.96 342.33 149.04 340.86 149.11 339.38 149.04 337.92 149.04L333.42 149.04C332.54 147.71 331.71 146.37 330.97 145.04Z" fill="#C676D2"/></g></svg>