<svg width="96" height="96" xmlns="http://www.w3.org/2000/svg" xmlns:xlink="http://www.w3.org/1999/xlink" xml:space="preserve" overflow="hidden"><g transform="translate(-434 -97)"><path d="M513 161.958C512.891 159.049 511.542 156.326 509.294 154.476 506.161 151.815 501.865 149.525 495.864 147.298 497.969 147.068 500.033 146.554 502 145.769 502 145.769 499.738 144.416 498.337 138.879 497.448 135.4 500.85 126.702 500.879 120.579 500.879 115.679 499.487 113.485 496.858 111.997 495.341 111.137 491.843 111.929 491.843 111.929 491.843 111.929 490.04 108.5 483.99 106.62 479.019 105.265 473.714 105.941 469.242 108.5 465.5 110.92 463.7 113.578 463.608 122.72 463.531 131.099 464.681 138.54 464.149 142.048 463.903 143.99 463.163 145.837 462 147.412 463.833 147.566 465.674 147.607 467.512 147.533 461.838 149.686 457.729 151.908 454.705 154.475 452.448 156.336 451.099 159.076 451 162L451 179.569 451.89 180.163C456.79 183.428 469.583 185.055 482.283 185.055 495.09 185.055 507.8 183.4 512.2 180.1L513 179.5ZM496.505 159C497.61 159 498.505 159.895 498.505 161 498.505 162.105 497.61 163 496.505 163 495.4 163 494.505 162.105 494.505 161 494.505 159.895 495.4 159 496.505 159ZM470 124.939C470.487 124.909 470.973 124.851 471.453 124.764 474.808 124.322 478.082 123.401 481.176 122.029 484.653 120.28 486.646 119.422 489.531 116.81 489.912 116.435 490.524 116.44 490.898 116.821 491.041 116.965 491.134 117.151 491.165 117.351 491.395 118.941 491.993 122.44 492.788 123.835 493.147 124.521 493.552 125.182 494 125.814L494 130C494 136.627 488.627 142 482 142 475.373 142 470 136.627 470 130ZM489.821 148.909C487.282 149.657 484.647 150.025 482 150 479.351 150.025 476.713 149.657 474.172 148.908 475.331 147.96 476.002 146.542 476 145.045L476 144.819C479.847 146.391 484.158 146.391 488.005 144.819L488.005 145.041C487.999 146.538 488.667 147.958 489.823 148.909ZM509 177.409C500.24 182.228 464.6 182.187 455.008 177.348L455.008 162.042C455.083 160.275 455.918 158.628 457.3 157.524 460.082 155.307 463.184 153.526 466.5 152.24L466.5 156.522C462.563 156.785 459.503 160.054 459.5 164 459.501 164.424 459.683 164.828 460 165.11L460 171.5C460.003 172.892 460.964 174.099 462.32 174.415 462.825 175.072 463.767 175.195 464.423 174.69 465.08 174.185 465.203 173.243 464.698 172.586 464.193 171.93 463.251 171.807 462.595 172.311 462.572 172.329 462.55 172.347 462.529 172.365 462.207 172.196 462.004 171.864 462 171.5L462 165.11C462.317 164.828 462.499 164.424 462.5 164 462.5 161.515 464.515 159.5 467 159.5L468 159.5C470.485 159.5 472.5 161.515 472.5 164 472.501 164.424 472.683 164.828 473 165.11L473 171.5C472.996 171.863 472.794 172.196 472.472 172.365 471.845 171.824 470.898 171.893 470.356 172.521 469.815 173.148 469.885 174.095 470.512 174.636 471.139 175.177 472.086 175.108 472.628 174.481 472.646 174.459 472.664 174.437 472.681 174.415 474.037 174.099 474.997 172.892 475 171.5L475 165.11C475.317 164.828 475.499 164.424 475.5 164 475.496 160.055 472.436 156.788 468.5 156.525L468.5 151.435C468.777 151.327 469.048 151.219 469.338 151.11 472.275 152.934 476.891 154 482 154 487.109 154 491.724 152.933 494.657 151.11 494.95 151.22 495.22 151.329 495.503 151.439L495.503 157.075C495.503 157.098 495.515 157.116 495.516 157.138 493.375 157.683 492.082 159.861 492.627 162.002 493.173 164.142 495.35 165.436 497.491 164.89 499.632 164.345 500.925 162.167 500.38 160.027 500.018 158.608 498.91 157.499 497.491 157.138 497.491 157.116 497.503 157.097 497.503 157.075L497.503 152.244C500.82 153.528 503.922 155.309 506.703 157.525 508.077 158.617 508.914 160.247 509 162Z" fill="#C676D2"/><path d="M497.505 161C497.505 161.552 497.057 162 496.505 162 495.953 162 495.505 161.552 495.505 161 495.505 160.448 495.953 160 496.505 160 497.057 160 497.505 160.448 497.505 161Z" fill="#C676D2"/></g></svg>