<svg width="96" height="96" xmlns="http://www.w3.org/2000/svg" xmlns:xlink="http://www.w3.org/1999/xlink" xml:space="preserve" overflow="hidden"><g transform="translate(-371 -97)"><path d="M387.225 158.925C384.156 157.801 381.653 155.513 380.26 152.556 378.383 148.376 378.867 143.514 381.53 139.786 384.242 136.107 388.773 134.239 393.29 134.936L396.84 135.526 396.84 131.656C396.871 124.573 401.686 118.405 408.55 116.656 415.435 114.996 422.554 118.315 425.71 124.656L426.92 127.066 429.43 126.176C433.186 124.851 437.351 125.433 440.6 127.736 443.831 130.101 445.743 133.862 445.75 137.866L445.75 140.986 449.83 140.986C455.012 141.181 459.056 145.539 458.861 150.722 458.675 155.669 454.68 159.623 449.73 159.756L444.48 159.756 431.52 159.734 431.52 165.966 439.17 165.986 449.73 165.986C458.365 165.782 465.2 158.616 464.996 149.98 464.815 142.362 459.17 135.982 451.63 134.876 450.834 129.986 448.147 125.604 444.15 122.676 440.012 119.747 434.847 118.661 429.88 119.676 424.993 112.132 415.881 108.489 407.14 110.586 398.602 112.763 392.213 119.865 390.95 128.586 385.294 128.758 380.025 131.501 376.64 136.036 372.62 141.622 371.888 148.928 374.72 155.2 377.604 161.383 383.649 165.484 390.46 165.88L397.8 165.88 405.52 165.901 405.52 159.689 392.52 159.666 390.72 159.666C389.582 159.594 388.46 159.365 387.385 158.986Z" fill="#C676D2"/><path d="M426.52 177.986 426.52 153.986 439.02 153.986 418.52 129.986 398.02 153.986 410.52 153.986 410.52 177.986 426.52 177.986Z" fill="#C676D2"/></g></svg>