<svg width="96" height="96" xmlns="http://www.w3.org/2000/svg" xmlns:xlink="http://www.w3.org/1999/xlink" xml:space="preserve" overflow="hidden"><g transform="translate(-116 -125)"><path d="M197 150.6C192.7 140.7 184.9 133 174.8 129L173.3 132.7C182.3 136.3 189.4 143.2 193.3 152.2 197.1 161.2 197.3 171.1 193.7 180.1 190.1 189.1 183.2 196.2 174.2 200.1 165.2 203.9 155.3 204.1 146.3 200.5L144.8 204.2C148.5 205.7 152.4 206.6 156.3 206.9L156.3 210.8 136.3 210.8 136.3 216.8 184.3 216.8 184.3 210.8 164.3 210.8 164.3 206.8C168.2 206.4 172 205.3 175.8 203.8 185.8 199.5 193.4 191.7 197.4 181.6 201.4 171.5 201.3 160.6 197 150.6Z" fill="#C676D2"/><path d="M192.5 166.6C192.5 184.549 177.949 199.1 160 199.1 142.051 199.1 127.5 184.549 127.5 166.6 127.5 148.651 142.051 134.1 160 134.1 177.949 134.1 192.5 148.651 192.5 166.6Z" fill="#C676D2"/></g></svg>