<svg width="109" height="96" xmlns="http://www.w3.org/2000/svg" xmlns:xlink="http://www.w3.org/1999/xlink" xml:space="preserve" overflow="hidden"><g transform="translate(-173 -263)"><path d="M24 78C22.3431 78 21 76.6569 21 75L21 30C21 28.3431 22.3431 27 24 27L27.5 27C28.31 27.0184 28.9816 26.3768 29 25.5668 29.0005 25.5445 29.0005 25.5222 29 25.5L29 21 55 21 55 25.5C54.9816 26.31 55.6232 26.9816 56.4332 27 56.4555 27.0005 56.4777 27.0005 56.5 27L60 27C61.6569 27 63 28.3431 63 30L63 37.99 31 37.99C29.8954 37.99 29 38.8854 29 39.99L29 57.99C29 59.0946 29.8954 59.99 31 59.99L63 59.99 63 68.983 65 68.983 65 30C64.9972 27.2397 62.7603 25.0028 60 25L57 25 57 21 59 21C60.0675 21.0371 60.9629 20.2018 61 19.1343 61.0016 19.0896 61.0016 19.0448 61 19L61 13C60.9967 10.2399 58.7601 8.00331 56 8L28 8C25.2399 8.00331 23.0033 10.2399 23 13L23 19C22.9629 20.0675 23.7982 20.9629 24.8657 21 24.9104 21.0016 24.9552 21.0016 25 21L27 21 27 25 24 25C21.2397 25.0028 19.0028 27.2397 19 30L19 75C19.0033 77.7601 21.2399 79.9967 24 80L42.026 80C42.017 79.825 41.999 79.652 41.999 79.475 42.003 78.9812 42.0418 78.4883 42.115 78ZM31 57.983 31 39.983 63 39.983 63 57.983ZM25 19 25 13C25 11.3431 26.3431 10 28 10L56 10C57.6569 10 59 11.3431 59 13L59 19 25 19Z" stroke="#C676D2" fill="#C676D2" transform="matrix(1.13542 0 0 1 173 263)"/><path d="M69.438 72 52.562 72C48.4199 72 45.062 75.3579 45.062 79.5 45.062 83.6421 48.4199 87 52.562 87L69.438 87C73.5801 87 76.938 83.6421 76.938 79.5 76.938 75.3579 73.5801 72 69.438 72ZM47.061 79.5C47.0654 76.4643 49.5253 74.0044 52.561 74L60.061 74 60.061 85 52.561 85C49.5253 84.9956 47.0654 82.5357 47.061 79.5ZM69.438 85 62.061 85 62.061 74 69.438 74C72.4756 74 74.938 76.4624 74.938 79.5 74.938 82.5376 72.4756 85 69.438 85Z" stroke="#C676D2" fill="#C676D2" transform="matrix(1.13542 0 0 1 173 263)"/></g></svg>