<svg width="96" height="96" xmlns="http://www.w3.org/2000/svg" xmlns:xlink="http://www.w3.org/1999/xlink" xml:space="preserve" overflow="hidden"><g transform="translate(-125 -282)"><path d="M189 312C189 320.837 181.837 328 173 328 164.163 328 157 320.837 157 312 157 303.163 164.163 296 173 296 181.837 296 189 303.163 189 312Z" fill="#FFFFFF"/><path d="M205 364 205 348C205 345.6 203.8 343.2 201.8 341.6 197.4 338 191.8 335.6 186.2 334 182.2 332.8 177.8 332 173 332 168.6 332 164.2 332.8 159.8 334 154.2 335.6 148.6 338.4 144.2 341.6 142.2 343.2 141 345.6 141 348L141 364 205 364Z" fill="#FFFFFF"/></g></svg>