<svg width="96" height="96" xmlns="http://www.w3.org/2000/svg" xmlns:xlink="http://www.w3.org/1999/xlink" xml:space="preserve" overflow="hidden"><g transform="translate(-327 -438)"><path d="M398 482C394.1 482 391 478.9 391 475 391 471.1 394.1 468 398 468 401.9 468 405 471.1 405 475 405 478.9 401.9 482 398 482ZM409 475C409 468.9 404.1 464 398 464 391.9 464 387 468.9 387 475 387 480 390.4 484.3 395 485.6L395 509C395 517.3 388.3 524 380 524 371.7 524 365 517.3 365 509L365 498.8C375.2 497.3 383 488.6 383 478 383 476.5 382.2 475.2 381 474.6L381 450C381 447 378.7 444.5 375.8 444.1 375.4 442.9 374.3 442 373 442L372 442C369.8 442 368 443.8 368 446 368 448.2 369.8 450 372 450L373 450C374.2 450 375.3 449.2 375.8 448.2 376.5 448.5 377 449.2 377 450L377 474.6C375.8 475.3 375 476.6 375 478 375 485.2 369.2 491 362 491 354.8 491 349 485.2 349 478 349 476.5 348.2 475.2 347 474.6L347 450C347 449.2 347.5 448.5 348.2 448.2 348.7 449.3 349.7 450 351 450L352 450C354.2 450 356 448.2 356 446 356 443.8 354.2 442 352 442L351 442C349.7 442 348.6 442.9 348.2 444.1 345.3 444.5 343 447 343 450L343 474.6C341.8 475.3 341 476.6 341 478 341 488.6 348.8 497.3 359 498.8L359 509C359 520.6 368.4 530 380 530 391.6 530 401 520.6 401 509L401 485.6C405.6 484.3 409 480 409 475Z" fill="#C676D2"/><path d="M403 475C403 477.761 400.761 480 398 480 395.239 480 393 477.761 393 475 393 472.239 395.239 470 398 470 400.761 470 403 472.239 403 475Z" fill="#C676D2"/></g></svg>