<svg width="96" height="96" xmlns="http://www.w3.org/2000/svg" xmlns:xlink="http://www.w3.org/1999/xlink" xml:space="preserve" overflow="hidden"><g transform="translate(-592 -312)"><path d="M676.663 348.793 658.869 366.586 651.509 359.228 650.095 360.642 658.869 369.414 678.077 350.207 676.663 348.793Z" fill="#C676D2"/><path d="M631.72 390.953C636.599 384.521 637.19 372.022 633.905 368.399 630.097 364.252 625.899 365.705 622.83 366.767L622.229 366.974C621.501 367.219 620.742 367.357 619.974 367.384 619.948 366.963 619.898 366.545 619.824 366.13 621.321 365.847 622.706 365.144 623.819 364.103 626.176 361.708 625.987 357.836 625.978 357.672L625.928 356.781 625.036 356.73C624.876 356.72 621.004 356.528 618.656 358.959 618.228 359.434 617.861 359.96 617.562 360.525 616.815 359.371 615.945 358.303 614.966 357.338L613.557 358.759C615.986 360.975 617.547 363.982 617.961 367.244 617.584 367.175 617.211 367.079 616.847 366.958L616.259 366.754C613.157 365.672 608.905 364.19 605.122 368.358 601.859 371.958 602.461 384.439 607.327 390.879 610.441 395 614.771 396.048 619.562 393.865 621.033 394.578 622.642 394.962 624.276 394.992 627.267 394.936 630.043 393.43 631.72 390.953ZM620.114 360.328C621.175 359.383 622.527 358.83 623.946 358.762 623.882 360.197 623.347 361.57 622.424 362.67 621.562 363.465 620.485 363.988 619.327 364.173 619.185 363.741 619.014 363.288 618.804 362.812 619.029 361.888 619.479 361.035 620.114 360.328ZM620.011 391.862 619.565 391.64 619.12 391.861C614.992 393.904 611.565 393.167 608.923 389.673 604.411 383.702 604.168 372.389 606.604 369.702 609.494 366.516 612.6 367.595 615.601 368.642L616.201 368.85C617.197 369.191 618.24 369.373 619.292 369.391L619.502 369.394C620.647 369.416 621.787 369.238 622.871 368.867L623.484 368.656C626.447 367.63 629.511 366.57 632.427 369.746 634.877 372.449 634.648 383.781 630.126 389.743 627.506 393.196 624.102 393.909 620.011 391.862Z" fill="#C676D2"/><path d="M623.005 343.099 624.162 354.736C624.492 354.718 624.822 354.718 625.151 354.734L626.174 354.792 625 343 625 341 657.931 341 657.933 342.922 656.588 360.063 658.447 361.921 659.93 343 659.93 339 654 339 654 336.414 664.707 325.707C665.091 325.31 665.08 324.677 664.682 324.293 664.295 323.919 663.68 323.919 663.293 324.293L652 335.586 652 339 623 339Z" fill="#C676D2"/><path d="M654.005 392.995 632.627 392.995C631.977 393.743 631.243 394.415 630.44 394.995L655.854 394.995 657.625 372.412 655.765 370.553Z" fill="#C676D2"/></g></svg>