<svg width="96" height="96" xmlns="http://www.w3.org/2000/svg" xmlns:xlink="http://www.w3.org/1999/xlink" xml:space="preserve" overflow="hidden"><g transform="translate(-740 -263)"><path d="M763 345 763 277 788 277 788 298 813 298 813 345 763 345ZM794 279.5 806.5 292 794 292 794 279.5ZM794 271 757 271 757 351 819 351 819 293 794 271Z" fill="#C676D2"/><path d="M769 308 807 308 807 312 769 312Z" fill="#C676D2"/><path d="M769 300 782 300 782 304 769 304Z" fill="#C676D2"/><path d="M769 316 807 316 807 320 769 320Z" fill="#C676D2"/><path d="M769 324 807 324 807 328 769 328Z" fill="#C676D2"/><path d="M769 332 807 332 807 336 769 336Z" fill="#C676D2"/></g></svg>