<svg width="96" height="96" xmlns="http://www.w3.org/2000/svg" xmlns:xlink="http://www.w3.org/1999/xlink" xml:space="preserve" overflow="hidden"><g transform="translate(-1089 -36)"><path d="M1169 100.958C1168.95 98.0222 1167.58 95.2659 1165.27 93.452 1161.53 90.394 1157.14 88.505 1152.52 86.852L1147.62 84.842C1147.25 84.6893 1147 84.3252 1147 83.92L1147 81.472C1150.65 78.5451 1152.84 74.1618 1152.98 69.482L1155.62 64.94C1156.01 64.0389 1156.16 63.0575 1156.07 62.083 1155.49 55.5296 1151.52 49.7603 1145.6 46.883 1145.12 46.6592 1144.56 46.7092 1144.13 47.014L1143.12 47.714 1142.01 46.187C1141.66 45.7051 1141.15 45.3756 1140.56 45.268 1139.52 45.0883 1138.47 44.9987 1137.41 45 1128.4 44.9998 1120.67 51.409 1119 60.26L1118.96 60.478C1118.47 63.0749 1117.47 65.5468 1116 67.745L1121 67.745 1121 69C1121 73.8494 1123.21 78.4355 1127 81.465L1127 83.92C1127 84.3261 1126.75 84.6921 1126.38 84.846L1121.44 86.869C1116.84 88.515 1112.47 90.398 1108.77 93.425 1106.43 95.2505 1105.05 98.0349 1105 101L1105 118.569 1105.89 119.163C1110.8 122.434 1124.08 124.063 1137.28 124.063 1150.58 124.063 1163.78 122.405 1168.19 119.098L1168.99 118.498ZM1151.51 98C1152.61 98 1153.51 98.8954 1153.51 100 1153.51 101.105 1152.61 102 1151.51 102 1150.4 102 1149.51 101.105 1149.51 100 1149.51 98.8954 1150.4 98 1151.51 98ZM1125 69 1125 67.745 1132.06 67.745C1142.34 67.745 1140.94 59.552 1145.44 58.379 1146.64 58.1511 1147.89 58.3024 1149 58.812L1149 69C1149 75.6274 1143.63 81 1137 81 1130.37 81 1125 75.6274 1125 69ZM1137 85C1139.06 84.9994 1141.09 84.5996 1143 83.823L1143 83.923C1143 85.472 1143.72 86.9333 1144.95 87.875 1142.37 88.65 1139.69 89.0293 1137 89 1134.31 89.028 1131.63 88.6474 1129.05 87.871 1130.28 86.9298 1131 85.4692 1131 83.92L1131 83.82C1132.9 84.5982 1134.94 84.9989 1137 85ZM1165 116.406C1156.12 121.236 1118.71 121.2 1109 116.345L1109 101.045C1109.04 99.2813 1109.87 97.6291 1111.27 96.551 1114.36 94.1903 1117.81 92.3516 1121.5 91.108L1121.5 95.522C1117.56 95.7851 1114.5 99.054 1114.5 103 1114.5 103.424 1114.68 103.828 1115 104.11L1115 110.5C1115 111.892 1115.96 113.099 1117.32 113.415 1117.82 114.072 1118.77 114.195 1119.42 113.69 1120.08 113.185 1120.2 112.243 1119.7 111.586 1119.19 110.929 1118.25 110.807 1117.59 111.312 1117.57 111.329 1117.55 111.347 1117.53 111.365 1117.21 111.196 1117 110.864 1117 110.5L1117 104.11C1117.32 103.828 1117.5 103.424 1117.5 103 1117.5 100.515 1119.51 98.5 1122 98.5L1123 98.5C1125.49 98.5 1127.5 100.515 1127.5 103 1127.5 103.424 1127.68 103.828 1128 104.11L1128 110.5C1128 110.863 1127.79 111.196 1127.47 111.365 1126.84 110.824 1125.9 110.893 1125.36 111.521 1124.82 112.148 1124.88 113.095 1125.51 113.636 1126.14 114.177 1127.09 114.108 1127.63 113.481 1127.65 113.459 1127.66 113.437 1127.68 113.415 1129.04 113.099 1130 111.892 1130 110.5L1130 104.11C1130.32 103.828 1130.5 103.424 1130.5 103 1130.5 99.0552 1127.44 95.788 1123.5 95.525L1123.5 90.383C1123.77 90.283 1124.04 90.19 1124.31 90.096 1127.25 91.927 1131.88 93 1137 93 1142.12 93 1146.75 91.928 1149.68 90.1 1149.96 90.2 1150.23 90.293 1150.5 90.39L1150.5 96.079C1150.5 96.102 1150.52 96.12 1150.52 96.142 1148.38 96.6874 1147.08 98.8649 1147.63 101.006 1148.17 103.146 1150.35 104.44 1152.49 103.894 1154.63 103.349 1155.93 101.171 1155.38 99.0307 1155.02 97.6116 1153.91 96.5035 1152.49 96.142 1152.49 96.12 1152.5 96.101 1152.5 96.079L1152.5 91.112C1156.2 92.3603 1159.66 94.2058 1162.76 96.575 1164.13 97.6392 1164.96 99.2637 1165 101Z" fill="#C676D2"/><path d="M1152.51 100C1152.51 100.552 1152.06 101 1151.51 101 1150.95 101 1150.51 100.552 1150.51 100 1150.51 99.4477 1150.95 99 1151.51 99 1152.06 99 1152.51 99.4477 1152.51 100Z" fill="#C676D2"/></g></svg>