<svg width="96" height="96" xmlns="http://www.w3.org/2000/svg" xmlns:xlink="http://www.w3.org/1999/xlink" xml:space="preserve" overflow="hidden"><g transform="translate(-933 -167)"><path d="M993 205 993 202 981 190 969 202 969 205 940 205 940 209 942 209 942 247 1020 247 1020 209 1022 209 1022 205ZM952 239 946 239 946 233 952 233ZM952 229 946 229 946 223 952 223ZM952 219 946 219 946 213 952 213ZM962 239 956 239 956 233 962 233ZM962 229 956 229 956 223 962 223ZM962 219 956 219 956 213 962 213ZM972 239 966 239 966 233 972 233ZM972 229 966 229 966 223 972 223ZM972 219 966 219 966 213 972 213ZM977 243 977 229 985 229 985 243ZM988 208.88 986.13 212.12 982.87 210.23 982.87 214 979.13 214 979.13 210.23 975.87 212.12 974 208.88 977.27 207 974 205.12 975.87 201.88 979.13 203.77 979.13 200 982.87 200 982.87 203.77 986.13 201.88 988 205.12 984.73 207ZM996 239 990 239 990 233 996 233ZM996 229 990 229 990 223 996 223ZM996 219 990 219 990 213 996 213ZM1006 239 1000 239 1000 233 1006 233ZM1006 229 1000 229 1000 223 1006 223ZM1006 219 1000 219 1000 213 1006 213ZM1016 239 1010 239 1010 233 1016 233ZM1016 229 1010 229 1010 223 1016 223ZM1016 219 1010 219 1010 213 1016 213Z" fill="#C676D2"/><path d="M981 184.83 995.59 199.41 998.41 196.59 981 179.17 963.59 196.59 966.41 199.41 981 184.83Z" fill="#C676D2"/></g></svg>