<svg width="96" height="96" xmlns="http://www.w3.org/2000/svg" xmlns:xlink="http://www.w3.org/1999/xlink" xml:space="preserve" overflow="hidden"><g transform="translate(-385 -173)"><path d="M443.049 178.755C442.535 178.553 441.954 178.806 441.753 179.32 441.551 179.835 441.804 180.415 442.318 180.617 461.086 187.973 470.338 209.151 462.982 227.919 455.625 246.688 434.447 255.939 415.679 248.583 415.165 248.381 414.584 248.634 414.383 249.148 414.181 249.663 414.434 250.243 414.948 250.445 419.112 252.078 423.529 252.97 428 253.08L428 260.1 415.5 260.1C413.291 260.1 411.5 261.891 411.5 264.1L413.5 264.1C413.5 262.995 414.395 262.1 415.5 262.1L442.5 262.1C443.605 262.1 444.5 262.995 444.5 264.1L446.5 264.1C446.5 261.891 444.709 260.1 442.5 260.1L430 260.1 430 253.062C451.247 252.52 468.032 234.857 467.491 213.61 467.096 198.133 457.466 184.399 443.049 178.755Z" stroke="#C676D2" fill="#C676D2"/><path d="M404.5 265.1 453.5 265.1 453.5 267.1 404.5 267.1Z" stroke="#C676D2" fill="#C676D2"/><path d="M416.631 244.654C433.23 251.485 452.223 243.567 459.054 226.968 465.885 210.369 457.966 191.376 441.368 184.545 424.769 177.714 405.776 185.632 398.945 202.231 392.058 218.695 399.822 237.625 416.286 244.512 416.401 244.56 416.516 244.607 416.631 244.654ZM430.305 214.054 441.165 187.667C446.41 196.677 447.115 208.519 442.994 219.276ZM442.233 221.126C437.588 231.666 428.752 239.581 418.685 242.29L429.544 215.905ZM428.456 213.3 415.767 208.072C420.412 197.532 429.248 189.617 439.315 186.908ZM427.7 215.144 416.835 241.531C411.59 232.521 410.885 220.679 415.006 209.922ZM420.42 243.868C430.571 240.708 439.386 232.574 444.082 221.889L456.8 227.123C450.537 240.987 435.025 248.127 420.42 243.868ZM457.562 225.274 444.843 220.039C449.03 209.139 448.493 197.162 443.507 187.772 456.879 195.027 462.871 211.018 457.562 225.274ZM429.039 184.1C431.929 184.101 434.805 184.516 437.577 185.333 427.427 188.494 418.613 196.627 413.918 207.311L401.211 202.082C406.147 191.14 417.035 184.104 429.039 184.1ZM400.439 203.926 413.158 209.161C408.971 220.056 409.508 232.038 414.494 241.428 401.122 234.173 395.129 218.183 400.438 203.926Z" stroke="#C676D2" fill="#C676D2"/></g></svg>