<svg width="96" height="96" xmlns="http://www.w3.org/2000/svg" xmlns:xlink="http://www.w3.org/1999/xlink" xml:space="preserve" overflow="hidden"><g transform="translate(-116 -167)"><path d="M164 227C157.4 227 152 221.6 152 215 152 208.4 157.4 203 164 203 170.6 203 176 208.4 176 215 176 221.6 170.6 227 164 227ZM191 207.5C190.4 205.3 189.5 203.2 188.4 201.3L190.9 193.8 185.2 188.1 177.7 190.6C175.7 189.5 173.6 188.6 171.4 188L168 181 160 181 156.5 188C154.3 188.6 152.2 189.5 150.3 190.6L142.8 188.1 137.1 193.8 139.6 201.3C138.5 203.3 137.6 205.4 137 207.6L130 211 130 219 137 222.5C137.6 224.7 138.5 226.8 139.6 228.7L137.1 236.2 142.8 241.9 150.3 239.4C152.3 240.5 154.4 241.4 156.6 242L160.1 249 168.1 249 171.6 242C173.8 241.4 175.9 240.5 177.8 239.4L185.3 241.9 191 236.2 188.5 228.7C189.6 226.7 190.5 224.6 191.1 222.4L198.1 218.9 198.1 210.9 191 207.5Z" fill="#FFFFFF"/></g></svg>